<?xml version="1.0" encoding="utf-8"?>
<!-- Generator: Adobe Illustrator 22.0.0, SVG Export Plug-In . SVG Version: 6.00 Build 0)  -->
<svg version="1.1" id="Calque_1" xmlns="http://www.w3.org/2000/svg" xmlns:xlink="http://www.w3.org/1999/xlink" x="0px" y="0px"
	 viewBox="0 0 535.8 100.9" style="enable-background:new 0 0 535.8 100.9;" xml:space="preserve">
<style type="text/css">
	.st0{display:none;}
	.st1{fill:#FFFFFF;stroke:#010101;stroke-miterlimit:10;}
	.st2{display:inline;fill:#FFFFFF;stroke:#414142;stroke-width:2;stroke-miterlimit:10;}
	.st3{display:inline;}
	.st4{fill:#FFFFFF;stroke:#414142;stroke-width:2;stroke-miterlimit:10;}
	.st5{display:none;fill:#FFFFFF;stroke:#010101;stroke-miterlimit:10;}
	.st6{fill:#FFFFFF;}
	.st7{display:none;fill:#FFFFFF;stroke:#000000;stroke-width:2;stroke-miterlimit:10;}
	.st8{fill:none;stroke:#000000;stroke-width:2;stroke-miterlimit:10;}
	.st9{fill:#FFFFFF;stroke:#000000;stroke-miterlimit:10;}
</style>
<rect width="535.8" height="100.9"/>
<g class="st0">
	<path class="st1" d="M311.5,11.2c0-1.2,0.1-1.3,1-2.1c0.8-0.8,0.5-2.3,1.8-2.3h25.1c3,0,5.8,0.6,8.5,1.7c2.6,1.1,4.9,2.7,6.9,4.7
		c2,2,3.6,4.3,4.7,7c1.2,2.7,1.8,5.5,1.8,8.5c0,3.4-0.8,6.5-2.3,9.5c-1.5,2.9-3.5,5.4-5.9,7.5c4.1,2.4,7.5,5.6,9.9,9.8
		c2.5,4.2,3.7,8.9,3.7,14c0,3.8-0.7,7.3-2.1,10.7c-1.4,3.3-3.4,6.3-5.9,8.7c-2.5,2.5-5.4,4.5-8.7,5.9c-3.3,1.5-6.9,2.2-10.7,2.2
		h-25.1c-1.2,0-2.3-0.4-3.1-1.3c-0.8-0.8-1.3-1.9-1.3-3.1L311.5,11.2z M318.6,15.5v26.4h20.7c1.8,0,3.5-0.4,5.1-1.1
		c1.6-0.8,3-1.7,4.2-3c1.2-1.2,2.1-2.6,2.8-4.2c0.7-1.6,1-3.2,1-4.9c0-1.8-0.3-3.5-1-5c-0.7-1.6-1.6-2.9-2.8-4.2
		c-1.2-1.2-2.6-2.2-4.2-2.9c-1.6-0.7-3.3-1.1-5.1-1.1H318.6z M318.6,50.7l-1.1,37.5h21.8c2.5,0,4.9-0.5,7.2-1.6
		c2.3-1,4.2-2.4,5.9-4.1c1.7-1.7,3-3.7,4-5.9c1-2.3,1.5-4.7,1.5-7.2s-0.5-5-1.5-7.3c-1-2.3-2.3-4.3-4-6c-1.7-1.7-3.7-3-5.9-4
		c-2.3-1-4.7-1.5-7.2-1.5H318.6z"/>
	<path class="st2" d="M311.5,11.2c0-1.2,0.1-1.3,1-2.1c0.8-0.8,0.5-2.3,1.8-2.3h25.1c3,0,5.8,0.6,8.5,1.7c2.6,1.1,4.9,2.7,6.9,4.7
		c2,2,3.6,4.3,4.7,7c1.2,2.7,1.8,5.5,1.8,8.5c0,3.4-0.8,6.5-2.3,9.5c-1.5,2.9-3.5,5.4-5.9,7.5c4.1,2.4,7.5,5.6,9.9,9.8
		c2.5,4.2,3.7,8.9,3.7,14c0,3.8-0.7,7.3-2.1,10.7c-1.4,3.3-3.4,6.3-5.9,8.7c-2.5,2.5-5.4,4.5-8.7,5.9c-3.3,1.5-6.9,2.2-10.7,2.2
		h-25.1c-1.2,0-2.3-0.4-3.1-1.3c-0.8-0.8-1.3-1.9-1.3-3.1L311.5,11.2z"/>
	<path class="st2" d="M402.1,10c0.3-0.8,0.8-1.5,1.6-2.2c0.8-0.7,1.6-1.1,2.5-1.1c0.9,0,1.8,0.3,2.5,1c0.8,0.7,1.3,1.4,1.7,2.3
		l34.9,80.9c0.2,0.4,0.3,0.9,0.3,1.7c0,1.1-0.4,2.1-1.1,3c-0.8,0.8-1.8,1.3-3.1,1.3c-2,0-3.3-0.9-4.1-2.7L426,68.3h-39.7L375,94.1
		c-0.4,0.8-0.9,1.5-1.7,2c-0.8,0.5-1.6,0.7-2.4,0.7c-1.3,0-2.4-0.4-3.2-1.3c-0.8-0.8-1.2-1.8-1.2-3c0-0.6,0.1-1.1,0.4-1.7L402.1,10z
		"/>
	<path class="st2" d="M501.9,64.5c-1.2,0-2.3-0.4-3.1-1.3c-0.8-0.8-1.3-1.9-1.3-3.1c0-1.2,0.4-2.3,1.3-3.1c0.8-0.8,1.9-1.3,3.1-1.3
		h25.5c1.3,0,2.4,0.4,3.1,1.3c0.8,0.9,1.1,2,1.1,3.2c0,0.2,0,0.4-0.1,0.6c0,0.2-0.1,0.4-0.1,0.6c-1,5.1-2.9,9.8-5.6,14.2
		c-2.7,4.4-6,8.1-9.9,11.3c-3.9,3.2-8.3,5.6-13.2,7.4c-4.9,1.8-10,2.7-15.4,2.7c-6.2,0-12-1.2-17.5-3.5c-5.5-2.4-10.2-5.6-14.3-9.6
		c-4-4-7.2-8.8-9.6-14.3c-2.4-5.5-3.5-11.3-3.5-17.5s1.2-12,3.5-17.5c2.4-5.5,5.6-10.2,9.6-14.3c4-4.1,8.8-7.3,14.3-9.7
		c5.5-2.4,11.3-3.5,17.5-3.5c7.5,0,14.5,1.7,20.8,5.1c6.4,3.4,11.5,7.9,15.6,13.5c0.7,1,1,2,1,3c0,0.9-0.4,1.9-1.1,2.8
		c-0.8,0.9-1.8,1.3-3.1,1.3c-0.7,0-1.3-0.1-2-0.4c-0.7-0.3-1.3-0.8-1.9-1.6c-4.5-5.3-9.3-9.1-14.3-11.4c-5-2.4-10-3.5-15-3.5
		c-5,0-9.7,0.9-14.1,2.8c-4.4,1.9-8.3,4.5-11.5,7.8c-3.2,3.3-5.8,7.2-7.7,11.6c-1.9,4.4-2.8,9.1-2.8,14.1c0,5,0.9,9.7,2.8,14.1
		c1.9,4.4,4.4,8.3,7.7,11.5c3.2,3.2,7.1,5.8,11.5,7.7c4.4,1.9,9.1,2.8,14.1,2.8c4,0,7.7-0.6,11.2-1.8c3.5-1.2,6.8-2.8,9.7-4.9
		c3-2.1,5.6-4.6,7.8-7.5c2.2-2.9,4-6.1,5.3-9.6H501.9z"/>
</g>
<g class="st0">
	<g class="st3">
		<path class="st4" d="M9.6,11.3c0-1.2,0.4-2.3,1.3-3.2c0.8-0.9,1.9-1.3,3.1-1.3h23c3.4,0,6.5,0.6,9.5,1.9c2.9,1.3,5.5,3,7.7,5.2
			c2.2,2.2,4,4.8,5.2,7.7c1.3,2.9,1.9,6,1.9,9.3c0,3.3-0.6,6.4-1.9,9.4c-1.3,3-3,5.5-5.2,7.7c-2.2,2.2-4.8,3.9-7.7,5.2
			C43.5,54.4,40.4,55,37,55H18.3v37.5c0,1.2-0.4,2.3-1.3,3.1C16.2,96.5,15.2,97,14,97c-1.2,0-2.3-0.4-3.1-1.3
			c-0.8-0.8-1.3-1.9-1.3-3.1V11.3z"/>
		<path class="st4" d="M72.7,11.3c0-1,0.4-2,1.3-3c0.8-1,1.9-1.5,3.2-1.5c1.3,0,2.4,0.5,3.1,1.4c0.8,0.9,1.1,2,1.1,3.2v54.2
			c0,3.1,0.6,6,1.8,8.8c1.2,2.7,2.8,5.1,4.8,7.1c2,2,4.4,3.6,7.2,4.9c2.8,1.2,5.7,1.8,8.8,1.8c3.1,0,6-0.6,8.7-1.8
			c2.7-1.2,5.1-2.8,7.2-4.9c2.1-2,3.7-4.4,4.9-7.1c1.2-2.7,1.8-5.6,1.8-8.8V11.3c0-1,0.4-2,1.3-3c0.8-1,1.9-1.5,3.2-1.5
			c1.3,0,2.4,0.5,3.1,1.6c0.8,1,1.1,2.1,1.1,3.1v54.2c0,4.3-0.8,8.4-2.5,12.2c-1.7,3.8-4,7.1-6.8,9.9c-2.8,2.8-6.1,5.1-9.9,6.7
			c-3.8,1.6-7.9,2.5-12.2,2.5c-4.3,0-8.4-0.8-12.2-2.5c-3.8-1.6-7.1-3.9-9.9-6.7c-2.8-2.8-5.1-6.1-6.7-9.9
			c-1.6-3.8-2.5-7.9-2.5-12.2V11.3z"/>
		<path class="st4" d="M147.9,11.2c0-1.2,0.4-2.3,1.3-3.1c0.8-0.8,1.9-1.3,3.1-1.3h25.1c3,0,5.8,0.6,8.5,1.7
			c2.6,1.1,4.9,2.7,6.9,4.7c2,2,3.5,4.3,4.7,7c1.2,2.7,1.8,5.5,1.8,8.5c0,3.4-0.8,6.5-2.3,9.5c-1.5,2.9-3.5,5.4-5.9,7.5
			c4.1,2.4,7.5,5.6,9.9,9.8c2.5,4.2,3.7,8.9,3.7,14c0,3.8-0.7,7.3-2.1,10.7c-1.4,3.3-3.4,6.3-5.9,8.8c-2.5,2.5-5.4,4.5-8.8,5.9
			c-3.3,1.5-6.9,2.2-10.7,2.2h-25.1c-1.2,0-2.3-0.4-3.1-1.3c-0.8-0.8-1.3-1.9-1.3-3.1V11.2z"/>
		<path class="st4" d="M210.1,11.2c0-1.2,0.4-2.3,1.3-3.1c0.8-0.8,1.9-1.3,3.1-1.3c1.2,0,2.3,0.4,3.1,1.3c0.8,0.8,1.3,1.9,1.3,3.1
			v77.1h35.8c1.2,0,2.3,0.4,3.1,1.3c0.8,0.8,1.3,1.9,1.3,3.1c0,1.2-0.4,2.3-1.3,3.1c-0.8,0.8-1.9,1.3-3.1,1.3h-40.2
			c-1.2,0-2.3-0.4-3.1-1.3c-0.8-0.8-1.3-1.9-1.3-3.1V11.2z"/>
	</g>
</g>
<g>
	<path class="st5" d="M311.5,11.2c0-1.2,0.1-1.3,1-2.1c0.8-0.8,0.5-2.3,1.8-2.3h25.1c3,0,5.8,0.6,8.5,1.7c2.6,1.1,4.9,2.7,6.9,4.7
		c2,2,3.6,4.3,4.7,7c1.2,2.7,1.8,5.5,1.8,8.5c0,3.4-0.8,6.5-2.3,9.5c-1.5,2.9-3.5,5.4-5.9,7.5c4.1,2.4,7.5,5.6,9.9,9.8
		c2.5,4.2,3.7,8.9,3.7,14c0,3.8-0.7,7.3-2.1,10.7c-1.4,3.3-3.4,6.3-5.9,8.7c-2.5,2.5-5.4,4.5-8.7,5.9c-3.3,1.5-6.9,2.2-10.7,2.2
		h-25.1c-1.2,0-2.3-0.4-3.1-1.3c-0.8-0.8-1.3-1.9-1.3-3.1L311.5,11.2z M318.6,15.5v26.4h20.7c1.8,0,3.5-0.4,5.1-1.1
		c1.6-0.8,3-1.7,4.2-3c1.2-1.2,2.1-2.6,2.8-4.2c0.7-1.6,1-3.2,1-4.9c0-1.8-0.3-3.5-1-5c-0.7-1.6-1.6-2.9-2.8-4.2
		c-1.2-1.2-2.6-2.2-4.2-2.9c-1.6-0.7-3.3-1.1-5.1-1.1H318.6z M318.6,50.7l-1.1,37.5h21.8c2.5,0,4.9-0.5,7.2-1.6
		c2.3-1,4.2-2.4,5.9-4.1c1.7-1.7,3-3.7,4-5.9c1-2.3,1.5-4.7,1.5-7.2s-0.5-5-1.5-7.3c-1-2.3-2.3-4.3-4-6c-1.7-1.7-3.7-3-5.9-4
		c-2.3-1-4.7-1.5-7.2-1.5H318.6z"/>
	<path class="st6" d="M311.5,11.2c0-1.2,0.1-1.3,1-2.1c0.8-0.8,0.5-2.3,1.8-2.3h25.1c3,0,5.8,0.6,8.5,1.7c2.6,1.1,4.9,2.7,6.9,4.7
		c2,2,3.6,4.3,4.7,7c1.2,2.7,1.8,5.5,1.8,8.5c0,3.4-0.8,6.5-2.3,9.5c-1.5,2.9-3.5,5.4-5.9,7.5c4.1,2.4,7.5,5.6,9.9,9.8
		c2.5,4.2,3.7,8.9,3.7,14c0,3.8-0.7,7.3-2.1,10.7c-1.4,3.3-3.4,6.3-5.9,8.7c-2.5,2.5-5.4,4.5-8.7,5.9c-3.3,1.5-6.9,2.2-10.7,2.2
		h-25.1c-1.2,0-2.3-0.4-3.1-1.3c-0.8-0.8-1.3-1.9-1.3-3.1L311.5,11.2z"/>
	<path class="st6" d="M402.1,10c0.3-0.8,0.8-1.5,1.6-2.2c0.8-0.7,1.6-1.1,2.5-1.1c0.9,0,1.8,0.3,2.5,1c0.8,0.7,1.3,1.4,1.7,2.3
		l34.9,80.9c0.2,0.4,0.3,0.9,0.3,1.7c0,1.1-0.4,2.1-1.1,3c-0.8,0.8-1.8,1.3-3.1,1.3c-2,0-3.3-0.9-4.1-2.7L426,68.3h-39.7L375,94.1
		c-0.4,0.8-0.9,1.5-1.7,2c-0.8,0.5-1.6,0.7-2.4,0.7c-1.3,0-2.4-0.4-3.2-1.3c-0.8-0.8-1.2-1.8-1.2-3c0-0.6,0.1-1.1,0.4-1.7L402.1,10z
		"/>
	<path class="st6" d="M501.9,64.5c-1.2,0-2.3-0.4-3.1-1.3c-0.8-0.8-1.3-1.9-1.3-3.1c0-1.2,0.4-2.3,1.3-3.1c0.8-0.8,1.9-1.3,3.1-1.3
		h25.5c1.3,0,2.4,0.4,3.1,1.3c0.8,0.9,1.1,2,1.1,3.2c0,0.2,0,0.4-0.1,0.6c0,0.2-0.1,0.4-0.1,0.6c-1,5.1-2.9,9.8-5.6,14.2
		c-2.7,4.4-6,8.1-9.9,11.3c-3.9,3.2-8.3,5.6-13.2,7.4c-4.9,1.8-10,2.7-15.4,2.7c-6.2,0-12-1.2-17.5-3.5c-5.5-2.4-10.2-5.6-14.3-9.6
		c-4-4-7.2-8.8-9.6-14.3c-2.4-5.5-3.5-11.3-3.5-17.5s1.2-12,3.5-17.5c2.4-5.5,5.6-10.2,9.6-14.3c4-4.1,8.8-7.3,14.3-9.7
		c5.5-2.4,11.3-3.5,17.5-3.5c7.5,0,14.5,1.7,20.8,5.1c6.4,3.4,11.5,7.9,15.6,13.5c0.7,1,1,2,1,3c0,0.9-0.4,1.9-1.1,2.8
		c-0.8,0.9-1.8,1.3-3.1,1.3c-0.7,0-1.3-0.1-2-0.4c-0.7-0.3-1.3-0.8-1.9-1.6c-4.5-5.3-9.3-9.1-14.3-11.4c-5-2.4-10-3.5-15-3.5
		c-5,0-9.7,0.9-14.1,2.8c-4.4,1.9-8.3,4.5-11.5,7.8c-3.2,3.3-5.8,7.2-7.7,11.6c-1.9,4.4-2.8,9.1-2.8,14.1c0,5,0.9,9.7,2.8,14.1
		c1.9,4.4,4.4,8.3,7.7,11.5c3.2,3.2,7.1,5.8,11.5,7.7c4.4,1.9,9.1,2.8,14.1,2.8c4,0,7.7-0.6,11.2-1.8c3.5-1.2,6.8-2.8,9.7-4.9
		c3-2.1,5.6-4.6,7.8-7.5c2.2-2.9,4-6.1,5.3-9.6H501.9z"/>
</g>
<g>
	<g>
		<path class="st6" d="M9.6,11.3c0-1.2,0.4-2.3,1.3-3.2c0.8-0.9,1.9-1.3,3.1-1.3h23c3.4,0,6.5,0.6,9.5,1.9c2.9,1.3,5.5,3,7.7,5.2
			c2.2,2.2,4,4.8,5.2,7.7c1.3,2.9,1.9,6,1.9,9.3c0,3.3-0.6,6.4-1.9,9.4c-1.3,3-3,5.5-5.2,7.7c-2.2,2.2-4.8,3.9-7.7,5.2
			C43.5,54.4,40.4,55,37,55H18.3v37.5c0,1.2-0.4,2.3-1.3,3.1C16.2,96.5,15.2,97,14,97c-1.2,0-2.3-0.4-3.1-1.3
			c-0.8-0.8-1.3-1.9-1.3-3.1V11.3z"/>
		<path class="st6" d="M72.7,11.3c0-1,0.4-2,1.3-3c0.8-1,1.9-1.5,3.2-1.5c1.3,0,2.4,0.5,3.1,1.4c0.8,0.9,1.1,2,1.1,3.2v54.2
			c0,3.1,0.6,6,1.8,8.8c1.2,2.7,2.8,5.1,4.8,7.1c2,2,4.4,3.6,7.2,4.9c2.8,1.2,5.7,1.8,8.8,1.8c3.1,0,6-0.6,8.7-1.8
			c2.7-1.2,5.1-2.8,7.2-4.9c2.1-2,3.7-4.4,4.9-7.1c1.2-2.7,1.8-5.6,1.8-8.8V11.3c0-1,0.4-2,1.3-3c0.8-1,1.9-1.5,3.2-1.5
			c1.3,0,2.4,0.5,3.1,1.6c0.8,1,1.1,2.1,1.1,3.1v54.2c0,4.3-0.8,8.4-2.5,12.2c-1.7,3.8-4,7.1-6.8,9.9c-2.8,2.8-6.1,5.1-9.9,6.7
			c-3.8,1.6-7.9,2.5-12.2,2.5c-4.3,0-8.4-0.8-12.2-2.5c-3.8-1.6-7.1-3.9-9.9-6.7c-2.8-2.8-5.1-6.1-6.7-9.9
			c-1.6-3.8-2.5-7.9-2.5-12.2V11.3z"/>
		<path class="st6" d="M147.9,11.2c0-1.2,0.4-2.3,1.3-3.1c0.8-0.8,1.9-1.3,3.1-1.3h25.1c3,0,5.8,0.6,8.5,1.7
			c2.6,1.1,4.9,2.7,6.9,4.7c2,2,3.5,4.3,4.7,7c1.2,2.7,1.8,5.5,1.8,8.5c0,3.4-0.8,6.5-2.3,9.5c-1.5,2.9-3.5,5.4-5.9,7.5
			c4.1,2.4,7.5,5.6,9.9,9.8c2.5,4.2,3.7,8.9,3.7,14c0,3.8-0.7,7.3-2.1,10.7c-1.4,3.3-3.4,6.3-5.9,8.8c-2.5,2.5-5.4,4.5-8.8,5.9
			c-3.3,1.5-6.9,2.2-10.7,2.2h-25.1c-1.2,0-2.3-0.4-3.1-1.3c-0.8-0.8-1.3-1.9-1.3-3.1V11.2z"/>
		<path class="st6" d="M210.1,11.2c0-1.2,0.4-2.3,1.3-3.1c0.8-0.8,1.9-1.3,3.1-1.3c1.2,0,2.3,0.4,3.1,1.3c0.8,0.8,1.3,1.9,1.3,3.1
			v77.1h35.8c1.2,0,2.3,0.4,3.1,1.3c0.8,0.8,1.3,1.9,1.3,3.1c0,1.2-0.4,2.3-1.3,3.1c-0.8,0.8-1.9,1.3-3.1,1.3h-40.2
			c-1.2,0-2.3-0.4-3.1-1.3c-0.8-0.8-1.3-1.9-1.3-3.1V11.2z"/>
	</g>
</g>
<path class="st7" d="M316,6.2c1.7,1,2.2,2.4,2.2,4.3c0,8.7,0,17.4,0.1,26.2c0.1,12.8,0.4,25.7,0.4,38.5c0,5.8-0.3,11.6-0.6,17.4
	c-0.1,2.6-1.8,4.6-3.9,5.1c-1.5,0.3-2.5-0.4-3.3-1.4c-1.6-1.9-2.3-4.2-3-6.6c-0.6-2-0.1-3.7,1.2-5.2c0.7-0.8,1.4-1.7,1.9-2.6
	c-0.6,0.3-1.2,0.7-1.8,1c-0.4,0.2-0.8,0.5-1.2,0.6c-0.8,0.3-1.3,0-1.3-0.8c-0.1-1.6-0.1-3.2-0.1-4.8c0-0.3,0.2-0.7,0.4-1
	c1.1-1.9,2.3-3.8,3.4-5.7c0.1-0.2,0.2-0.4,0.2-0.7c-1.4,1.3-2.7,2.5-4.3,3.9c-0.1-1.6-0.1-3-0.4-4.4c-0.5-2.6,0.3-4.7,1.9-6.8
	c0.9-1.2,1.8-2.5,2.6-3.8c-0.1-0.1-0.1-0.1-0.2-0.2c-0.6,0.6-1.3,1.2-1.9,1.8c-0.5,0.5-0.9,1.1-1.4,1.7c-0.2,0.2-0.6,0.3-0.8,0.2
	c-0.2-0.1-0.4-0.5-0.4-0.7c0-2.3,0-4.6,0.1-6.9c0-0.5,0.3-1,0.6-1.5c1.2-1.8,2.4-3.5,3.7-5.3c0.2-0.3,0.4-0.5,0.4-0.9
	c-1.4,0.7-2.6,1.6-3.4,3c-0.2,0.3-0.3,0.8-0.9,0.6c-0.7-0.2-0.4-0.7-0.4-1c0.1-2.8,0.1-5.5,0.4-8.3c0.1-0.8,0.5-1.6,1-2.3
	c1.2-1.6,2.6-3.1,3.9-4.7c-1.8,0.3-2.9,1.8-4.6,2.7c0.2-1.5,0.3-2.9,0.5-4.2c0.3-2.3,0.5-4.6,0.9-6.8c0.2-0.9,0.8-1.8,1.4-2.6
	c0.6-0.7,1.4-1.3,2.1-2.2c-0.6,0.2-1.1,0.3-1.7,0.5c-0.9,0.3-1.2,0-1.1-0.8c0.7-4.6,1.7-9.1,3.3-13.5c0.5-1.4,1.4-2.1,2.8-2.4
	C315.2,6.1,315.6,6.2,316,6.2z"/>
<g>
	<path class="st6" d="M275.2,80.7c-2.7,0-5.1,0-7.8,0c0-0.7,0.1-1.5,0.1-2.3c0-18.4,0-36.7,0-55.1c0-1.2,1-1.8,1.5-2.6
		c0.1-0.1,0.6,0,0.9,0.2c0.2,0.1,0.3,0.4,0.5,0.7c0.6,0.9,1.1,0.9,1.7,0c0.8-1.4,1-1.2,2.1,0c0.9,0.9,0.8,1.9,0.8,2.9
		c0,18.4,0,36.8,0,55.2C274.9,80,275.1,80.4,275.2,80.7z"/>
	<path class="st6" d="M272.4,11c0.7,3,1.3,6,2,9c-0.6-0.1-1.3-0.4-1.8-0.2c-0.5,0.2-0.9,0.7-1.3,1.1c-0.4-0.4-0.8-1-1.4-1.1
		c-0.5-0.2-1.1,0.1-1.8,0.2c0.1-0.6,0.3-1.4,0.5-2.2c0.4-1.9,0.9-3.8,1.3-5.7c0.2-0.9,0.5-1.3,1.4-1.1C271.6,11,272,11,272.4,11z"/>
	<path class="st6" d="M275.1,93.3c0,1.1-0.1,2.2-0.1,3.4c0,0.6-0.2,0.8-0.8,0.8c-2,0-3.9,0-5.9,0c-0.3,0-0.7-0.4-0.7-0.7
		c-0.1-1.2-0.1-2.3-0.1-3.5C270,93.3,272.4,93.3,275.1,93.3z"/>
	<path class="st6" d="M275.3,86.2c0,0.5-0.1,1.1-0.2,1.9c-2.2,0-4.6,0-7-0.1c-0.9,0-1.1-0.6-1-2C269.8,86.1,272.5,86.2,275.3,86.2z"
		/>
	<path class="st6" d="M275.2,90.5c0.3,1.7,0.2,1.8-1.3,1.8c-1.9,0-3.8,0-5.8,0c-0.5,0-1,0.1-1-0.7c0-0.6,0.3-1.1,1-1.1
		c1.5,0,3.1,0,4.6,0C273.6,90.6,274.4,90.6,275.2,90.5z"/>
	<path class="st6" d="M275.3,83.4c-2.7,0-5.3-0.1-8-0.1c-0.3-1.5-0.2-1.5,1.3-1.5c1.8,0,3.5,0,5.3,0
		C275.4,81.8,275.4,81.7,275.3,83.4z"/>
	<path class="st6" d="M267,84.8c0.2-0.2,0.4-0.5,0.7-0.5c2.5,0,5,0,7.5-0.1c0.1,0.1,0.1,0.2,0.2,0.3c-0.2,0.2-0.4,0.6-0.6,0.6
		c-2.5,0-5,0-7.5,0C267.2,85,267.1,84.9,267,84.8z"/>
	<path class="st6" d="M267.4,89.5c0.3-0.2,0.5-0.5,0.8-0.5c1.8-0.1,4.8,0,6.5,0c0.2,0,0.4,0.3,0.6,0.4c-0.2,0.1-0.4,0.4-0.5,0.4
		c-2,0-5.2,0-7.2,0.1C267.5,89.7,267.5,89.6,267.4,89.5z"/>
	<path class="st6" d="M272.2,10.2c-0.8,0-1.3,0-2,0C270.5,9,270.8,8,271,7c0.1,0,0.3,0,0.4-0.1C271.7,7.9,271.9,9,272.2,10.2z"/>
</g>
<path class="st6" d="M301.5,21.8c0,0-0.8,10.5-0.6,12.5s-3.5,12.5-0.1,16.4c0,0-2.4,11.9-1.4,14.2c-0.2,0.6-0.1,14.9,1,17.7
	c0.3,0.9,1.6,7.3,1.6,7.3l6.8-5.1l5-14V30.8V13.2L312.4,9l-2.6-1l-3.4,2.9l-2.7,5L301.5,21.8z"/>
<path class="st8" d="M307.3,6.1c4.8-1.5,6.7-0.4,8.2,5.3c0.7,2.8,1,5.6,1,8.4c0.2,23.3-0.1,46.5-2.1,69.7c-0.2,2-0.9,4.3-2,5.9
	c-2.7,4-7.9,3.4-9.8-1c-1.7-3.9-1.8-7.5,1.4-10.9c2.2-2.3,4.2-5.1,5.7-7.9c0.8-1.5,0.3-2.7,0.5-4.5c-0.4,0-0.4,0-1.1,0
	c-3.1,4.6-5.6,7.9-8.5,12.3c-2.1-3.7-1.1-11.5,2.6-15.9c2.5-3,5.2-5.7,6-9.7c0.4-1.9,0.6-3.8,1-6.3L299.5,66c-1-3-0.5-6.2,0.8-9
	c1.2-2.5,2.9-4.9,4.9-6.9c3.8-3.8,5.7-8,5.5-12.8c-2.3,2.7-4.9,5.4-7.2,8.3c-1.4,1.9-2.3,4.2-3.4,6.3c-1.6-3-0.6-9.8,2.2-13.3
	c1.3-1.7,2.9-3.2,4.3-4.7c2.5-2.7,3.9-5.8,3.8-9.6l-9.8,11.3c-0.7-3.5,0.2-6.6,2-9.3c1.9-2.9,4.2-5.5,6-8.4c1.1-1.8,1.4-4,2-6.1
	c-0.2-0.1-0.5-0.2-0.7-0.3c-2.9,4-5.8,8.1-8.7,12.1c-0.6-4.4,0.8-8.7,2.1-13C304.5,9.1,306,7.5,307.3,6.1z"/>
<path class="st9" d="M307.3,6.1c4.8-1.5,6.7-0.4,8.2,5.3c0.7,2.8,1,5.6,1,8.4c0.2,23.3-0.1,46.5-2.1,69.7c-0.2,2-0.9,4.3-2,5.9
	c-2.7,4-7.9,3.4-9.8-1c-1.7-3.9-1.8-7.5,1.4-10.9c2.2-2.3,4.2-5.1,5.7-7.9c0.8-1.5,0.3-2.7,0.5-4.5c-0.4,0-0.4,0-1.1,0
	c-3.1,4.6-5.6,7.9-8.5,12.3c-2.1-3.7-1.1-11.5,2.6-15.9c2.5-3,5.2-5.7,6-9.7c0.4-1.9,0.6-3.8,1-6.3L299.5,66c-1-3-0.5-6.2,0.8-9
	c1.2-2.5,2.9-4.9,4.9-6.9c3.8-3.8,5.7-8,5.5-12.8c-2.3,2.7-4.9,5.4-7.2,8.3c-1.4,1.9-2.3,4.2-3.4,6.3c-1.6-3-0.6-9.8,2.2-13.3
	c1.3-1.7,2.9-3.2,4.3-4.7c2.5-2.7,3.9-5.8,3.8-9.6l-9.8,11.3c-0.7-3.5,0.2-6.6,2-9.3c1.9-2.9,4.2-5.5,6-8.4c1.1-1.8,1.4-4,2-6.1
	c-0.2-0.1-0.5-0.2-0.7-0.3c-2.9,4-5.8,8.1-8.7,12.1c-0.6-4.4,0.8-8.7,2.1-13C304.5,9.1,306,7.5,307.3,6.1z"/>
</svg>
